<svg xmlns="http://www.w3.org/2000/svg" version="1.1" xmlns:xlink="http://www.w3.org/1999/xlink" xmlns:svgjs="http://svgjs.dev/svgjs" width="2000" height="1247" viewBox="0 0 2000 1247"><g transform="matrix(1,0,0,1,-1.2121212121212466,0.504858299595071)"><svg viewBox="0 0 396 247" data-background-color="#000000" preserveAspectRatio="xMidYMid meet" height="1247" width="2000" xmlns="http://www.w3.org/2000/svg" xmlns:xlink="http://www.w3.org/1999/xlink"><g id="tight-bounds" transform="matrix(1,0,0,1,0.2400000000000091,-0.09999999999999432)"><svg viewBox="0 0 395.52 247.2" height="247.2" width="395.52"><g><svg></svg></g><g><svg viewBox="0 0 395.52 247.2" height="247.2" width="395.52"><g transform="matrix(1,0,0,1,131.58680132362673,47.215199999999996)"><svg viewBox="0 0 132.34639735274652 152.7696" height="152.7696" width="132.34639735274652"><g><svg viewBox="0 0 132.34639735274652 152.7696" height="152.7696" width="132.34639735274652"><g><svg viewBox="0 0 132.34639735274652 152.7696" height="152.7696" width="132.34639735274652"><g><svg viewBox="0 0 132.34639735274652 152.7696" height="152.7696" width="132.34639735274652"><g id="textblocktransform"><svg viewBox="0 0 132.34639735274652 152.7696" height="152.7696" width="132.34639735274652" id="textblock"><g><svg viewBox="0 0 132.34639735274652 152.7696" height="152.7696" width="132.34639735274652"><g transform="matrix(1,0,0,1,0,0)"><svg width="132.34639735274652" viewBox="2 -36.5 31.96 36.89" height="152.7696" data-palette-color="#ff511a"><path d="M15.75-28.76L15.75-28.76Q15.75-27.91 16.02-27.36 16.28-26.81 16.69-26.43 17.09-26.05 17.55-25.81 18.02-25.56 18.42-25.29 18.82-25.02 19.09-24.68 19.36-24.34 19.36-23.8L19.36-23.8Q19.36-22.9 18.73-22.42 18.09-21.95 17.26-21.95L17.26-21.95Q16.48-21.95 15.81-22.44 15.14-22.92 14.64-23.77 14.14-24.61 13.84-25.74 13.55-26.88 13.55-28.15L13.55-28.15Q13.55-29.71 14.04-31.14 14.53-32.57 15.48-33.65 16.43-34.74 17.83-35.38 19.24-36.01 21.04-36.01L21.04-36.01Q22.27-36.01 23.71-35.61 25.15-35.21 26.57-34.33 28-33.45 29.33-32.06 30.66-30.66 31.7-28.66 32.74-26.66 33.35-24.02 33.96-21.39 33.96-18.04L33.96-18.04Q33.96-13.72 32.68-10.3 31.4-6.88 29.21-4.5 27.03-2.12 24.15-0.87 21.26 0.39 18.04 0.39L18.04 0.39Q14.84 0.39 11.94-0.71 9.03-1.81 6.82-4.06 4.61-6.32 3.31-9.8 2-13.28 2-18.04L2-18.04Q2-21.73 2.99-24.76 3.98-27.78 5.65-30.13 7.32-32.47 9.55-34.07 11.77-35.67 14.26-36.5L14.26-36.5 15.09-35.45Q14.38-34.74 13.77-33.98 13.16-33.23 12.65-32.26 12.13-31.3 11.73-30.04 11.33-28.78 11.06-27.09 10.79-25.39 10.64-23.17 10.5-20.95 10.5-18.04L10.5-18.04Q10.5-14.28 10.9-11.62 11.3-8.96 11.95-7.17 12.6-5.37 13.42-4.31 14.23-3.25 15.06-2.71 15.89-2.17 16.67-2.01 17.46-1.86 18.04-1.86L18.04-1.86Q18.63-1.86 19.4-2.01 20.17-2.17 20.98-2.71 21.8-3.25 22.61-4.31 23.41-5.37 24.04-7.17 24.66-8.96 25.05-11.62 25.44-14.28 25.44-18.04L25.44-18.04Q25.44-21.34 25.15-23.78 24.85-26.22 24.38-27.95 23.9-29.69 23.28-30.8 22.66-31.91 21.98-32.56 21.31-33.2 20.64-33.45 19.97-33.69 19.41-33.69L19.41-33.69Q18.53-33.69 17.85-33.28 17.16-32.86 16.7-32.17 16.24-31.47 15.99-30.58 15.75-29.69 15.75-28.76Z" opacity="1" transform="matrix(1,0,0,1,0,0)" fill="#ff511a" class="wordmark-text-0" data-fill-palette-color="primary" id="text-0"></path></svg></g></svg></g></svg></g></svg></g></svg></g></svg></g></svg></g><path d="M313.888 41.215L313.888 0 66.688 0 66.688 247.2 313.888 247.2 313.888 205.985 300.111 205.985 300.111 233.423 80.465 233.423 80.465 13.777 300.111 13.777 300.111 41.215Z" fill="#ff511a" stroke="transparent" data-fill-palette-color="tertiary"></path></svg></g><defs></defs></svg><rect width="395.52" height="247.2" fill="none" stroke="none" visibility="hidden"></rect></g></svg></g></svg>